<?xml version="1.0" encoding="UTF-8" standalone="no"?>
<!-- Created with Inkscape (http://www.inkscape.org/) -->

<svg
   width="180"
   height="180"
   viewBox="0 0 180 180"
   version="1.1"
   id="svg5"
   inkscape:version="1.2.2 (732a01da63, 2022-12-09)"
   sodipodi:docname="home-button.svg"
   xml:space="preserve"
   xmlns:inkscape="http://www.inkscape.org/namespaces/inkscape"
   xmlns:sodipodi="http://sodipodi.sourceforge.net/DTD/sodipodi-0.dtd"
   xmlns="http://www.w3.org/2000/svg"
   xmlns:svg="http://www.w3.org/2000/svg"><sodipodi:namedview
     id="namedview7"
     pagecolor="#000000"
     bordercolor="#000000"
     borderopacity="0.25"
     inkscape:showpageshadow="2"
     inkscape:pageopacity="0"
     inkscape:pagecheckerboard="0"
     inkscape:deskcolor="#d1d1d1"
     inkscape:document-units="px"
     showgrid="false"
     inkscape:zoom="1.6440233"
     inkscape:cx="255.47084"
     inkscape:cy="86.981737"
     inkscape:window-width="1920"
     inkscape:window-height="1017"
     inkscape:window-x="-8"
     inkscape:window-y="-8"
     inkscape:window-maximized="1"
     inkscape:current-layer="layer1" /><defs
     id="defs2" /><g
     inkscape:label="Layer 1"
     inkscape:groupmode="layer"
     id="layer1"><circle
       style="fill:#3a3a3a;fill-opacity:1;stroke:#757575;stroke-width:5.17604;stroke-linecap:round;stroke-dasharray:none;stroke-opacity:1"
       id="path1218"
       cx="-49.403221"
       cy="72.747307"
       r="43.41198"
       inkscape:export-filename="button-homescreen.png"
       inkscape:export-xdpi="96"
       inkscape:export-ydpi="96" /><path
       sodipodi:type="star"
       style="fill:#3a3a3a;fill-opacity:1;stroke:#757575;stroke-width:5;stroke-linecap:round;stroke-dasharray:none;stroke-opacity:1"
       id="path2837"
       inkscape:flatsided="true"
       sodipodi:sides="3"
       sodipodi:cx="62.365589"
       sodipodi:cy="72.258064"
       sodipodi:r1="44.74979"
       sodipodi:r2="22.374895"
       sodipodi:arg1="-1.0471976"
       sodipodi:arg2="0"
       inkscape:rounded="0"
       inkscape:randomized="0"
       d="m 84.740482,33.503608 4e-6,77.508912 -67.124687,-38.754454 z"
       inkscape:transform-center-x="7.1959764"
       transform="matrix(0.64321877,0,0,0.64321877,4.5010803,10.40855)"
       inkscape:export-filename="back.png"
       inkscape:export-xdpi="96"
       inkscape:export-ydpi="96" /><path
       d="m 287.4093,37.676858 c 1.92442,0 3.47918,1.55476 3.47918,3.47918 v 48.70854 c 0,1.92443 -1.55476,3.47918 -3.47918,3.47918 -1.92442,0 -3.47919,-1.55475 -3.47919,-3.47918 v -48.70854 c 0,-1.92442 1.55477,-3.47918 3.47919,-3.47918 z m -13.91673,10.43754 c 1.92442,0 3.47918,1.55476 3.47918,3.47918 v 38.271 c 0,1.92443 -1.55476,3.47918 -3.47918,3.47918 -1.92442,0 -3.47918,-1.55475 -3.47918,-3.47918 v -38.271 c 0,-1.92442 1.55476,-3.47918 3.47918,-3.47918 z m -10.43755,13.91673 v 27.83345 c 0,1.92443 -1.55475,3.47918 -3.47918,3.47918 -1.92442,0 -3.47918,-1.55475 -3.47918,-3.47918 v -27.83345 c 0,-1.92442 1.55476,-3.47918 3.47918,-3.47918 1.92443,0 3.47918,1.55476 3.47918,3.47918 z m -17.3959,6.95836 c 1.92442,0 3.47918,1.55476 3.47918,3.47918 v 17.39591 c 0,1.92443 -1.55476,3.47918 -3.47918,3.47918 -1.92442,0 -3.47919,-1.55475 -3.47919,-3.47918 v -17.39591 c 0,-1.92442 1.55477,-3.47918 3.47919,-3.47918 z m -10.43754,13.91673 v 6.95836 c 0,1.92443 -1.55477,3.47918 -3.47919,3.47918 -1.92442,0 -3.47918,-1.55475 -3.47918,-3.47918 v -6.95836 c 0,-1.92442 1.55476,-3.47918 3.47918,-3.47918 1.92442,0 3.47919,1.55476 3.47919,3.47918 z"
       id="path2853"
       style="fill:#ffffff;stroke-width:0.108724" /></g></svg>
