<?xml version="1.0" encoding="UTF-8" standalone="no"?>
<!-- Created with Inkscape (http://www.inkscape.org/) -->

<svg
   width="180"
   height="180"
   viewBox="0 0 180 180"
   version="1.1"
   id="svg5"
   inkscape:version="1.2.2 (732a01da63, 2022-12-09)"
   sodipodi:docname="originals.svg"
   xml:space="preserve"
   xmlns:inkscape="http://www.inkscape.org/namespaces/inkscape"
   xmlns:sodipodi="http://sodipodi.sourceforge.net/DTD/sodipodi-0.dtd"
   xmlns="http://www.w3.org/2000/svg"
   xmlns:svg="http://www.w3.org/2000/svg"><sodipodi:namedview
     id="namedview7"
     pagecolor="#000000"
     bordercolor="#000000"
     borderopacity="0.25"
     inkscape:showpageshadow="2"
     inkscape:pageopacity="0"
     inkscape:pagecheckerboard="0"
     inkscape:deskcolor="#d1d1d1"
     inkscape:document-units="px"
     showgrid="false"
     inkscape:zoom="4.65"
     inkscape:cx="76.55914"
     inkscape:cy="36.55914"
     inkscape:window-width="1920"
     inkscape:window-height="1017"
     inkscape:window-x="-8"
     inkscape:window-y="-8"
     inkscape:window-maximized="1"
     inkscape:current-layer="layer1" /><defs
     id="defs2" /><g
     inkscape:label="Layer 1"
     inkscape:groupmode="layer"
     id="layer1"><circle
       style="fill:#3a3a3a;fill-opacity:1;stroke:#757575;stroke-width:5.17604;stroke-linecap:round;stroke-dasharray:none;stroke-opacity:1"
       id="path1218"
       cx="-49.403221"
       cy="72.747307"
       r="43.41198"
       inkscape:export-filename="button-homescreen.png"
       inkscape:export-xdpi="96"
       inkscape:export-ydpi="96" /><path
       sodipodi:type="star"
       style="fill:#3a3a3a;fill-opacity:1;stroke:#757575;stroke-width:5;stroke-linecap:round;stroke-dasharray:none;stroke-opacity:1"
       id="path2837"
       inkscape:flatsided="true"
       sodipodi:sides="3"
       sodipodi:cx="62.365589"
       sodipodi:cy="72.258064"
       sodipodi:r1="44.74979"
       sodipodi:r2="22.374895"
       sodipodi:arg1="-1.0471976"
       sodipodi:arg2="0"
       inkscape:rounded="0"
       inkscape:randomized="0"
       d="m 84.740482,33.503608 4e-6,77.508912 -67.124687,-38.754454 z"
       inkscape:transform-center-x="7.1959764"
       transform="matrix(0.64321877,0,0,0.64321877,4.5010803,10.40855)"
       inkscape:export-filename="back.png"
       inkscape:export-xdpi="96"
       inkscape:export-ydpi="96" /><path
       d="m 142.9153,60.452958 c 0.98333,0 1.77777,0.794444 1.77777,1.777776 v 24.888888 c 0,0.983337 -0.79444,1.777777 -1.77777,1.777777 -0.98332,0 -1.77779,-0.79444 -1.77779,-1.777777 V 62.230734 c 0,-0.983332 0.79445,-1.777776 1.77779,-1.777776 z m -7.11114,5.333332 c 0.98335,0 1.77782,0.794444 1.77782,1.777776 v 19.555556 c 0,0.983337 -0.79447,1.777777 -1.77782,1.777777 -0.9833,0 -1.77777,-0.79444 -1.77777,-1.777777 V 67.564066 c 0,-0.983332 0.79445,-1.777776 1.77777,-1.777776 z m -5.33333,7.111112 v 14.22222 c 0,0.983337 -0.79441,1.777777 -1.77776,1.777777 -0.98333,0 -1.77777,-0.79444 -1.77777,-1.777777 v -14.22222 c 0,-0.983332 0.79444,-1.777776 1.77777,-1.777776 0.98335,0 1.77776,0.794444 1.77776,1.777776 z m -8.88885,3.555553 c 0.98332,0 1.77777,0.794444 1.77777,1.777776 v 8.888891 c 0,0.983337 -0.79445,1.777777 -1.77777,1.777777 -0.98335,0 -1.7778,-0.79444 -1.7778,-1.777777 v -8.888891 c 0,-0.983332 0.79445,-1.777776 1.7778,-1.777776 z m -5.33335,7.111112 v 3.555555 c 0,0.983337 -0.79445,1.777777 -1.77777,1.777777 -0.98335,0 -1.77779,-0.79444 -1.77779,-1.777777 v -3.555555 c 0,-0.983329 0.79444,-1.777776 1.77779,-1.777776 0.98332,0 1.77777,0.794447 1.77777,1.777776 z"
       id="path2853"
       style="fill:#ffffff;stroke-width:0.0555552"
       inkscape:export-filename="signal.png"
       inkscape:export-xdpi="96"
       inkscape:export-ydpi="96" /><path
       d="m 95.654334,117.78036 c 3.450611,-3.31059 8.131426,-5.34595 13.292336,-5.34595 5.16091,0 9.84173,2.03536 13.29234,5.34595 0.64011,0.6101 1.65029,0.5901 2.2604,-0.045 0.61011,-0.6351 0.5901,-1.65029 -0.045,-2.26039 -4.0207,-3.86568 -9.48667,-6.2411 -15.50773,-6.2411 -6.02106,0 -11.487015,2.37542 -15.512724,6.2361 -0.635112,0.6151 -0.65511,1.62528 -0.045,2.26539 0.610109,0.64012 1.625286,0.66012 2.260398,0.045 z m 13.292336,2.65546 c 2.8405,0 5.43095,1.05519 7.4113,2.80049 0.66512,0.58511 1.6753,0.52009 2.2604,-0.14002 0.5851,-0.66011 0.52009,-1.67529 -0.14002,-2.2604 -2.54045,-2.24039 -5.88104,-3.60063 -9.53168,-3.60063 -3.65064,0 -6.99123,1.36024 -9.526671,3.60063 -0.665119,0.58511 -0.725126,1.59528 -0.140025,2.2604 0.585101,0.66512 1.595276,0.72513 2.260396,0.14002 1.97535,-1.7453 4.56581,-2.80049 7.41131,-2.80049 z m 3.20056,8.00141 a 3.2005625,3.2005625 0 1 0 -6.40112,0 3.2005625,3.2005625 0 1 0 6.40112,0 z"
       id="path2898"
       style="fill:#ffffff;stroke-width:0.0500088"
       inkscape:export-filename="wifi.png"
       inkscape:export-xdpi="96"
       inkscape:export-ydpi="96" /><path
       d="m 134.57059,29.926859 c 0.48889,0 0.88889,0.400001 0.88889,0.88889 v 8.888889 c 0,0.488889 -0.4,0.88889 -0.88889,0.88889 h -21.33334 c -0.48889,0 -0.88889,-0.400001 -0.88889,-0.88889 v -8.888889 c 0,-0.488889 0.4,-0.88889 0.88889,-0.88889 z m -21.33334,-3.555554 c -2.45555,0 -4.44444,1.988885 -4.44444,4.444444 v 8.888889 c 0,2.455559 1.98889,4.444444 4.44444,4.444444 h 21.33334 c 2.45555,0 4.44445,-1.988885 4.44445,-4.444444 v -0.888891 c 0.98333,0 1.77777,-0.794446 1.77777,-1.777781 v -3.555554 c 0,-0.983335 -0.79444,-1.777772 -1.77777,-1.777772 v -0.888891 c 0,-2.455559 -1.9889,-4.444444 -4.44445,-4.444444 z m 6.22223,5.333335 h -5.33334 v 7.111107 h 5.33334 z"
       id="path2923"
       style="fill:#ffffff;stroke-width:0.0555556"
       inkscape:export-filename="battery.png"
       inkscape:export-xdpi="96"
       inkscape:export-ydpi="96" /></g></svg>
