<?xml version="1.0" encoding="UTF-8" standalone="no"?>
<svg
   viewBox="0 0 512 512"
   version="1.1"
   id="svg12"
   sodipodi:docname="originals.svg"
   xml:space="preserve"
   inkscape:version="1.2.2 (732a01da63, 2022-12-09)"
   xmlns:inkscape="http://www.inkscape.org/namespaces/inkscape"
   xmlns:sodipodi="http://sodipodi.sourceforge.net/DTD/sodipodi-0.dtd"
   xmlns="http://www.w3.org/2000/svg"
   xmlns:svg="http://www.w3.org/2000/svg"><defs
     id="defs16" /><sodipodi:namedview
     id="namedview14"
     pagecolor="#ffffff"
     bordercolor="#000000"
     borderopacity="0.25"
     inkscape:showpageshadow="2"
     inkscape:pageopacity="0.0"
     inkscape:pagecheckerboard="0"
     inkscape:deskcolor="#d1d1d1"
     showgrid="false"
     showguides="true"
     inkscape:zoom="1.1559539"
     inkscape:cx="161.77116"
     inkscape:cy="82.183211"
     inkscape:window-width="1920"
     inkscape:window-height="1017"
     inkscape:window-x="-8"
     inkscape:window-y="-8"
     inkscape:window-maximized="1"
     inkscape:current-layer="svg12"><sodipodi:guide
       position="395.3445,399.53876"
       orientation="0,-1"
       id="guide3082"
       inkscape:locked="false" /><sodipodi:guide
       position="403.56282,287.94261"
       orientation="0,-1"
       id="guide3084"
       inkscape:locked="false" /></sodipodi:namedview><!--! Font Awesome Pro 6.4.0 by @fontawesome - https://fontawesome.com License - https://fontawesome.com/license (Commercial License) Copyright 2023 Fonticons, Inc. --><path
     d="M 20.183407,143.14508 20.002199,142.97836 7.302767,131.18499 c -2.225298,-2.06583 -3.486545,-4.96524 -3.486545,-8.00237 v -0.23921 c 0,-5.10297 3.62427,-9.48108 8.640249,-10.43788 2.855925,-0.55089 5.777082,0.10872 8.103864,1.74689 0.652366,0.46391 1.261242,1.0003 1.812133,1.61642 0.304436,-0.34792 0.630619,-0.66687 0.978551,-0.96404 0.268194,-0.23197 0.543638,-0.44942 0.833583,-0.65238 0,0 0,0 0,0 2.326775,-1.63817 5.247932,-2.29778 8.103857,-1.75414 5.015986,0.9568 8.64025,5.34216 8.64025,10.44513 v 0.23921 c 0,3.03713 -1.26124,5.93654 -3.486543,8.00237 l -12.699429,11.79337 -0.181214,0.16672 c -0.594381,0.55088 -1.377222,0.86257 -2.189055,0.86257 -0.811839,0 -1.594679,-0.30444 -2.189061,-0.86257 z m 0.964058,-23.42726 c -0.029,-0.0217 -0.05074,-0.0507 -0.07249,-0.0797 l -1.29024,-1.4497 c 0,0 -0.0072,-0.007 -0.0072,-0.007 0,0 0,0 0,0 -1.67441,-1.87738 -4.20415,-2.7327 -6.66865,-2.26155 -3.377813,0.64511 -5.813324,3.58802 -5.813324,7.02383 v 0.2392 c 0,2.06583 0.862578,4.04468 2.377521,5.4509 L 22.372515,140.42716 35.07194,128.6338 c 1.514949,-1.40622 2.377523,-3.38506 2.377523,-5.4509 v -0.2392 c 0,-3.42855 -2.435507,-6.37871 -5.806077,-7.02383 -2.464499,-0.47115 -5.001487,0.39143 -6.668649,2.26155 0,0 0,0 -0.0072,0.007 -0.0072,0.007 0,0 -0.0072,0.007 l -1.29024,1.44971 c -0.02172,0.029 -0.05074,0.0507 -0.07249,0.0797 -0.326183,0.32618 -0.768345,0.5074 -1.225003,0.5074 -0.456658,0 -0.898814,-0.18122 -1.225003,-0.5074 z"
     id="path10"
     style="stroke-width:0.072486"
     inkscape:export-filename="\\wsl$\Debian\home\xbelanch\Programming\15\static\themes\miniop\icons\heart-icon.png"
     inkscape:export-xdpi="96"
     inkscape:export-ydpi="96" /><path
     d="m 83.708387,115.14482 c 0,-1.62578 1.319047,-2.94483 2.94484,-2.94483 v 2.94483 24.13539 l 7.981727,-5.69949 c 0.509213,-0.3681 1.20248,-0.3681 1.711693,0 l 7.975603,5.69949 V 115.14482 H 86.653227 v -2.94483 h 17.669023 c 1.62578,0 2.94482,1.31905 2.94482,2.94483 v 26.99433 c 0,0.55216 -0.30676,1.05524 -0.79756,1.30677 -0.4908,0.25154 -1.07977,0.2086 -1.52762,-0.11042 l -9.454156,-6.74858 -9.454147,6.74858 c -0.447866,0.31902 -1.036833,0.36196 -1.52764,0.11042 -0.4908,-0.25153 -0.79756,-0.75461 -0.79756,-1.30677 z"
     id="path1967"
     style="stroke-width:0.0613511"
     inkscape:export-filename="\\wsl$\Debian\home\xbelanch\Programming\15\static\themes\miniop\icons\bookmark-icon.png"
     inkscape:export-xdpi="96"
     inkscape:export-ydpi="96" /><path
     d="m 122.89759,137.20655 c 0.90471,-0.65927 2.07594,-0.82759 3.12794,-0.44887 1.85853,0.67328 3.94149,1.05902 6.1577,1.05902 8.74562,0 14.58773,-5.64574 14.58773,-11.22132 0,-5.5756 -5.84211,-11.22134 -14.58773,-11.22134 -8.74562,0 -14.58772,5.64574 -14.58772,11.22134 0,2.24426 0.86966,4.40436 2.50376,6.25588 0.60314,0.68029 0.8977,1.578 0.82757,2.48974 -0.0982,1.26941 -0.39976,2.43362 -0.7925,3.46458 1.19225,-0.55405 2.18114,-1.17123 2.76325,-1.59202 z m -7.18165,2.84741 c 0.12623,-0.18937 0.24547,-0.37872 0.35767,-0.56808 0.70134,-1.16422 1.3676,-2.69313 1.50086,-4.41139 -2.104,-2.39155 -3.34536,-5.3161 -3.34536,-8.47911 0,-8.05832 8.03727,-14.58773 17.95412,-14.58773 9.91684,0 17.95412,6.52941 17.95412,14.58773 0,8.05831 -8.03728,14.58772 -17.95412,14.58772 -2.60194,0 -5.07064,-0.44886 -7.30088,-1.25539 -0.83458,0.61017 -2.19517,1.44475 -3.80824,2.14608 -1.059,0.46288 -2.2653,0.88368 -3.51368,1.12915 -0.0561,0.0141 -0.1122,0.021 -0.16832,0.0351 -0.30858,0.0561 -0.61015,0.10519 -0.92575,0.13325 -0.0141,0 -0.0351,0.007 -0.0491,0.007 -0.35768,0.0351 -0.71536,0.0561 -1.07304,0.0561 -0.45586,0 -0.86264,-0.27352 -1.03797,-0.69432 -0.17533,-0.4208 -0.0772,-0.8977 0.23845,-1.22032 0.28755,-0.29455 0.54704,-0.61015 0.7925,-0.94679 0.11924,-0.16132 0.23146,-0.32262 0.33666,-0.48392 0.007,-0.0141 0.0141,-0.021 0.021,-0.0351 z"
     id="path2710"
     style="stroke-width:0.0701333"
     inkscape:export-filename="\\wsl$\Debian\home\xbelanch\Programming\15\static\themes\miniop\icons\bubble-icon.png"
     inkscape:export-xdpi="96"
     inkscape:export-ydpi="96" /><path
     d="m 154.20849,128.02744 c -1.38875,0.7927 -1.25971,2.90658 0.22123,3.52107 l 8.62141,3.59482 v 6.34775 c 0,1.11225 0.89716,2.00942 2.0094,2.00942 0.59606,0 1.1614,-0.26424 1.54239,-0.7251 l 3.80989,-4.56573 7.61363,3.17081 c 1.16141,0.48546 2.50715,-0.27652 2.69765,-1.51781 l 3.93278,-25.56312 c 0.11676,-0.74354 -0.20892,-1.49323 -0.82957,-1.91723 -0.62063,-0.424 -1.43178,-0.46088 -2.08929,-0.086 z m 3.20154,1.56696 20.98511,-11.98886 -13.49438,15.07979 0.0738,0.0614 z m 20.59183,8.58454 -10.23754,-4.27076 13.15641,-14.70494 z"
     id="path3916"
     style="stroke-width:0.0614501"
     inkscape:export-filename="\\wsl$\Debian\home\xbelanch\Programming\15\static\themes\miniop\icons\shareit-icon.png"
     inkscape:export-xdpi="96"
     inkscape:export-ydpi="96" /><path
     d="m 60.183407,143.14508 -0.181208,-0.16672 -12.699432,-11.79337 c -2.225298,-2.06583 -3.486545,-4.96524 -3.486545,-8.00237 v -0.23921 c 0,-5.10297 3.62427,-9.48108 8.640249,-10.43788 2.855925,-0.55089 5.777082,0.10872 8.103864,1.74689 0.652366,0.46391 1.261242,1.0003 1.812133,1.61642 0.304436,-0.34792 0.630619,-0.66687 0.978551,-0.96404 0.268194,-0.23197 0.543638,-0.44942 0.833583,-0.65238 v 0 c 2.326775,-1.63817 5.247932,-2.29778 8.103857,-1.75414 5.015986,0.9568 8.640251,5.34216 8.640251,10.44513 v 0.23921 c 0,3.03713 -1.26124,5.93654 -3.486544,8.00237 l -12.699429,11.79337 -0.181214,0.16672 c -0.594381,0.55088 -1.377222,0.86257 -2.189055,0.86257 -0.811839,0 -1.594679,-0.30444 -2.189061,-0.86257 z"
     id="path3996"
     style="stroke-width:0.072486;fill:#ff0000"
     inkscape:export-filename="\\wsl$\Debian\home\xbelanch\Programming\15\static\themes\miniop\icons\heart-icon.png"
     inkscape:export-xdpi="96"
     inkscape:export-ydpi="96"
     sodipodi:nodetypes="cccssccccsscsscccsc" /></svg>
