<?xml version="1.0" encoding="UTF-8" standalone="no"?>
<svg
   width="16"
   height="16"
   fill="currentColor"
   class="bi bi-paperclip"
   viewBox="0 0 16 16"
   version="1.1"
   id="svg1"
   sodipodi:docname="paperclip.svg"
   inkscape:export-filename="attachment-icon.png"
   inkscape:export-xdpi="96"
   inkscape:export-ydpi="96"
   inkscape:version="1.3.2 (091e20ef0f, 2023-11-25, custom)"
   xmlns:inkscape="http://www.inkscape.org/namespaces/inkscape"
   xmlns:sodipodi="http://sodipodi.sourceforge.net/DTD/sodipodi-0.dtd"
   xmlns="http://www.w3.org/2000/svg"
   xmlns:svg="http://www.w3.org/2000/svg">
  <defs
     id="defs1">
    <rect
       x="-16.505671"
       y="17.215923"
       width="51.284923"
       height="20.967911"
       id="rect3" />
    <rect
       x="-15.316767"
       y="19.562849"
       width="43.178766"
       height="16.428467"
       id="rect2" />
  </defs>
  <sodipodi:namedview
     id="namedview1"
     pagecolor="#ffffff"
     bordercolor="#000000"
     borderopacity="0.25"
     inkscape:showpageshadow="2"
     inkscape:pageopacity="0.0"
     inkscape:pagecheckerboard="0"
     inkscape:deskcolor="#d1d1d1"
     inkscape:zoom="1.1449053"
     inkscape:cx="-96.514531"
     inkscape:cy="-92.147358"
     inkscape:window-width="1920"
     inkscape:window-height="1035"
     inkscape:window-x="0"
     inkscape:window-y="22"
     inkscape:window-maximized="1"
     inkscape:current-layer="svg1" />
  <rect
     style="fill:#800000;stroke-width:79.9998"
     id="rect1"
     width="128"
     height="128"
     x="0"
     y="0"
     ry="26.748938" />
  <path
     d="M 26.938572,42.172546 A 15.414465,15.414465 0 0 1 48.737916,20.3732 L 87.976737,59.612022 A 9.24868,9.24868 0 0 1 74.897127,72.691629 L 44.378047,42.172546 a 3.0828931,3.0828931 0 0 1 4.359869,-4.359869 l 30.519081,30.519082 a 3.0828932,3.0828933 0 0 0 4.35987,-4.359869 L 44.378047,24.73307 A 9.2486787,9.2486787 0 1 0 31.298441,37.812677 L 70.537264,77.051492 A 15.414464,15.414464 0 0 0 92.3366,55.252153 L 61.817523,24.73307 a 3.0828929,3.0828929 0 0 1 4.359864,-4.359868 L 96.696476,50.892285 A 21.580251,21.580251 0 1 1 66.177394,81.411368 Z"
     id="path1"
     style="fill:#f9f9f9;stroke-width:6.16579" />
  <text
     xml:space="preserve"
     id="text1"
     style="font-style:normal;font-variant:normal;font-weight:normal;font-stretch:normal;font-size:16px;line-height:0.9;font-family:Helvetica-Normal;-inkscape-font-specification:Helvetica-Normal;white-space:pre;shape-inside:url(#rect2);fill:#800000;stroke-width:10"><tspan
       x="-15.316406"
       y="47.467059"
       id="tspan4"><tspan
         dx="0 3.519989 13.360016 8.9440002 4.4159851 8.9440002"
         id="tspan1">imatge</tspan></tspan></text>
  <text
     xml:space="preserve"
     id="text2"
     style="font-style:normal;font-variant:normal;font-weight:normal;font-stretch:normal;font-size:10.6667px;line-height:0.9;font-family:Helvetica-Normal;-inkscape-font-specification:Helvetica-Normal;white-space:pre;shape-inside:url(#rect3);fill:#800000;stroke-width:10"
     transform="matrix(2.8861257,0,0,2.8861257,64.967269,40.112328)"><tspan
       x="-16.505859"
       y="24.866735"
       id="tspan6"><tspan
         style="fill:#f9f9f9"
         id="tspan5">imatge</tspan></tspan></text>
</svg>
